<mxfile host="app.diagrams.net" agent="Mozilla/5.0 (Macintosh; Intel Mac OS X 10_15_7) AppleWebKit/537.36 (KHTML, like Gecko) Chrome/133.0.0.0 Safari/537.36" version="26.1.1">
  <diagram name="Page-1" id="ecdncouPua0yXoOgFPEB">
    <mxGraphModel dx="3150" dy="2957" grid="1" gridSize="10" guides="1" tooltips="1" connect="1" arrows="1" fold="1" page="1" pageScale="1" pageWidth="827" pageHeight="1169" math="0" shadow="0">
      <root>
        <mxCell id="0" />
        <mxCell id="1" parent="0" />
        <mxCell id="bu1bIHDC_9q-jcQCzxvl-1" value="User Uploads Prescription" style="rounded=1;whiteSpace=wrap;arcSize=50;strokeWidth=2;" vertex="1" parent="1">
          <mxGeometry x="373" y="20" width="208" height="39" as="geometry" />
        </mxCell>
        <mxCell id="bu1bIHDC_9q-jcQCzxvl-2" value="Detect Medical Document" style="whiteSpace=wrap;strokeWidth=2;" vertex="1" parent="1">
          <mxGeometry x="511" y="109" width="244" height="54" as="geometry" />
        </mxCell>
        <mxCell id="bu1bIHDC_9q-jcQCzxvl-3" value="analyze_medical_document Tool" style="whiteSpace=wrap;strokeWidth=2;" vertex="1" parent="1">
          <mxGeometry x="501" y="213" width="264" height="78" as="geometry" />
        </mxCell>
        <mxCell id="bu1bIHDC_9q-jcQCzxvl-4" value="Extract Structured Medical Data" style="whiteSpace=wrap;strokeWidth=2;" vertex="1" parent="1">
          <mxGeometry x="503" y="341" width="260" height="78" as="geometry" />
        </mxCell>
        <mxCell id="bu1bIHDC_9q-jcQCzxvl-5" value="Parse Medical Data" style="rhombus;strokeWidth=2;whiteSpace=wrap;" vertex="1" parent="1">
          <mxGeometry x="538" y="469" width="189" height="189" as="geometry" />
        </mxCell>
        <mxCell id="bu1bIHDC_9q-jcQCzxvl-6" value="Extract Diagnosis" style="whiteSpace=wrap;strokeWidth=2;" vertex="1" parent="1">
          <mxGeometry x="634" y="720" width="182" height="54" as="geometry" />
        </mxCell>
        <mxCell id="bu1bIHDC_9q-jcQCzxvl-7" value="Extract Medications" style="whiteSpace=wrap;strokeWidth=2;" vertex="1" parent="1">
          <mxGeometry x="929" y="720" width="201" height="54" as="geometry" />
        </mxCell>
        <mxCell id="bu1bIHDC_9q-jcQCzxvl-8" value="Extract Dietary Recommendations" style="whiteSpace=wrap;strokeWidth=2;" vertex="1" parent="1">
          <mxGeometry x="278" y="708" width="260" height="78" as="geometry" />
        </mxCell>
        <mxCell id="bu1bIHDC_9q-jcQCzxvl-9" value="Identify Medical Condition" style="whiteSpace=wrap;strokeWidth=2;" vertex="1" parent="1">
          <mxGeometry x="601" y="848" width="248" height="54" as="geometry" />
        </mxCell>
        <mxCell id="bu1bIHDC_9q-jcQCzxvl-10" value="Identify Medication Interactions" style="whiteSpace=wrap;strokeWidth=2;" vertex="1" parent="1">
          <mxGeometry x="900" y="836" width="260" height="78" as="geometry" />
        </mxCell>
        <mxCell id="bu1bIHDC_9q-jcQCzxvl-11" value="Extract Specific Dietary Needs" style="whiteSpace=wrap;strokeWidth=2;" vertex="1" parent="1">
          <mxGeometry x="278" y="836" width="260" height="78" as="geometry" />
        </mxCell>
        <mxCell id="bu1bIHDC_9q-jcQCzxvl-12" value="Generate Health Profile" style="whiteSpace=wrap;strokeWidth=2;" vertex="1" parent="1">
          <mxGeometry x="845" y="964" width="231" height="54" as="geometry" />
        </mxCell>
        <mxCell id="bu1bIHDC_9q-jcQCzxvl-13" value="Store in User Preferences" style="whiteSpace=wrap;strokeWidth=2;" vertex="1" parent="1">
          <mxGeometry x="278" y="1080" width="242" height="54" as="geometry" />
        </mxCell>
        <mxCell id="bu1bIHDC_9q-jcQCzxvl-14" value="Food Recommendation Engine" style="whiteSpace=wrap;strokeWidth=2;" vertex="1" parent="1">
          <mxGeometry x="830" y="1068" width="260" height="78" as="geometry" />
        </mxCell>
        <mxCell id="bu1bIHDC_9q-jcQCzxvl-15" value="Extract Food Keywords" style="whiteSpace=wrap;strokeWidth=2;" vertex="1" parent="1">
          <mxGeometry x="848" y="1208" width="223" height="54" as="geometry" />
        </mxCell>
        <mxCell id="bu1bIHDC_9q-jcQCzxvl-16" value="search_food_items_enhanced Tool" style="whiteSpace=wrap;strokeWidth=2;" vertex="1" parent="1">
          <mxGeometry x="822" y="1324" width="277" height="78" as="geometry" />
        </mxCell>
        <mxCell id="bu1bIHDC_9q-jcQCzxvl-17" value="Filter Results by Health Criteria" style="whiteSpace=wrap;strokeWidth=2;" vertex="1" parent="1">
          <mxGeometry x="830" y="1452" width="260" height="78" as="geometry" />
        </mxCell>
        <mxCell id="bu1bIHDC_9q-jcQCzxvl-18" value="Rank by Health Compatibility" style="whiteSpace=wrap;strokeWidth=2;" vertex="1" parent="1">
          <mxGeometry x="830" y="1580" width="260" height="78" as="geometry" />
        </mxCell>
        <mxCell id="bu1bIHDC_9q-jcQCzxvl-19" value="Extract Restaurant IDs" style="whiteSpace=wrap;strokeWidth=2;" vertex="1" parent="1">
          <mxGeometry x="850" y="1708" width="219" height="54" as="geometry" />
        </mxCell>
        <mxCell id="bu1bIHDC_9q-jcQCzxvl-20" value="get_restaurant_menu Tool" style="whiteSpace=wrap;strokeWidth=2;" vertex="1" parent="1">
          <mxGeometry x="836" y="1812" width="248" height="54" as="geometry" />
        </mxCell>
        <mxCell id="bu1bIHDC_9q-jcQCzxvl-21" value="Identify Healthy Menu Options" style="whiteSpace=wrap;strokeWidth=2;" vertex="1" parent="1">
          <mxGeometry x="830" y="1916" width="260" height="78" as="geometry" />
        </mxCell>
        <mxCell id="bu1bIHDC_9q-jcQCzxvl-22" value="Generate Alternative Recommendations" style="whiteSpace=wrap;strokeWidth=2;" vertex="1" parent="1">
          <mxGeometry x="748" y="2044" width="260" height="78" as="geometry" />
        </mxCell>
        <mxCell id="bu1bIHDC_9q-jcQCzxvl-23" value="Format Results with Health Context" style="whiteSpace=wrap;strokeWidth=2;" vertex="1" parent="1">
          <mxGeometry x="668" y="2172" width="260" height="78" as="geometry" />
        </mxCell>
        <mxCell id="bu1bIHDC_9q-jcQCzxvl-24" value="Create Structured Response" style="whiteSpace=wrap;strokeWidth=2;" vertex="1" parent="1">
          <mxGeometry x="186" y="2300" width="259" height="54" as="geometry" />
        </mxCell>
        <mxCell id="bu1bIHDC_9q-jcQCzxvl-25" value="Generate Medical Context" style="whiteSpace=wrap;strokeWidth=2;" vertex="1" parent="1">
          <mxGeometry x="431" y="964" width="247" height="54" as="geometry" />
        </mxCell>
        <mxCell id="bu1bIHDC_9q-jcQCzxvl-26" value="Respond to User" style="whiteSpace=wrap;strokeWidth=2;" vertex="1" parent="1">
          <mxGeometry x="227" y="2404" width="175" height="54" as="geometry" />
        </mxCell>
        <mxCell id="bu1bIHDC_9q-jcQCzxvl-27" value="Format Prescription Analysis" style="whiteSpace=wrap;strokeWidth=2;" vertex="1" parent="1">
          <mxGeometry x="20" y="2172" width="260" height="78" as="geometry" />
        </mxCell>
        <mxCell id="bu1bIHDC_9q-jcQCzxvl-28" value="Available for Future Queries" style="whiteSpace=wrap;strokeWidth=2;" vertex="1" parent="1">
          <mxGeometry x="185" y="1196" width="260" height="78" as="geometry" />
        </mxCell>
        <mxCell id="bu1bIHDC_9q-jcQCzxvl-29" value="" style="curved=1;startArrow=none;endArrow=block;exitX=0.83;exitY=1;entryX=0.5;entryY=0;rounded=0;" edge="1" parent="1" source="bu1bIHDC_9q-jcQCzxvl-1" target="bu1bIHDC_9q-jcQCzxvl-2">
          <mxGeometry relative="1" as="geometry">
            <Array as="points">
              <mxPoint x="633" y="84" />
            </Array>
          </mxGeometry>
        </mxCell>
        <mxCell id="bu1bIHDC_9q-jcQCzxvl-30" value="" style="curved=1;startArrow=none;endArrow=block;exitX=0.5;exitY=1;entryX=0.5;entryY=0;rounded=0;" edge="1" parent="1" source="bu1bIHDC_9q-jcQCzxvl-2" target="bu1bIHDC_9q-jcQCzxvl-3">
          <mxGeometry relative="1" as="geometry">
            <Array as="points" />
          </mxGeometry>
        </mxCell>
        <mxCell id="bu1bIHDC_9q-jcQCzxvl-31" value="" style="curved=1;startArrow=none;endArrow=block;exitX=0.5;exitY=1;entryX=0.5;entryY=0;rounded=0;" edge="1" parent="1" source="bu1bIHDC_9q-jcQCzxvl-3" target="bu1bIHDC_9q-jcQCzxvl-4">
          <mxGeometry relative="1" as="geometry">
            <Array as="points" />
          </mxGeometry>
        </mxCell>
        <mxCell id="bu1bIHDC_9q-jcQCzxvl-32" value="" style="curved=1;startArrow=none;endArrow=block;exitX=0.5;exitY=1;entryX=0.5;entryY=0;rounded=0;" edge="1" parent="1" source="bu1bIHDC_9q-jcQCzxvl-4" target="bu1bIHDC_9q-jcQCzxvl-5">
          <mxGeometry relative="1" as="geometry">
            <Array as="points" />
          </mxGeometry>
        </mxCell>
        <mxCell id="bu1bIHDC_9q-jcQCzxvl-33" value="" style="curved=1;startArrow=none;endArrow=block;exitX=0.89;exitY=1;entryX=0.5;entryY=0;rounded=0;" edge="1" parent="1" source="bu1bIHDC_9q-jcQCzxvl-5" target="bu1bIHDC_9q-jcQCzxvl-6">
          <mxGeometry relative="1" as="geometry">
            <Array as="points">
              <mxPoint x="726" y="683" />
            </Array>
          </mxGeometry>
        </mxCell>
        <mxCell id="bu1bIHDC_9q-jcQCzxvl-34" value="" style="curved=1;startArrow=none;endArrow=block;exitX=1;exitY=0.65;entryX=0.5;entryY=0;rounded=0;" edge="1" parent="1" source="bu1bIHDC_9q-jcQCzxvl-5" target="bu1bIHDC_9q-jcQCzxvl-7">
          <mxGeometry relative="1" as="geometry">
            <Array as="points">
              <mxPoint x="1030" y="683" />
            </Array>
          </mxGeometry>
        </mxCell>
        <mxCell id="bu1bIHDC_9q-jcQCzxvl-35" value="" style="curved=1;startArrow=none;endArrow=block;exitX=0;exitY=0.77;entryX=0.5;entryY=0;rounded=0;" edge="1" parent="1" source="bu1bIHDC_9q-jcQCzxvl-5" target="bu1bIHDC_9q-jcQCzxvl-8">
          <mxGeometry relative="1" as="geometry">
            <Array as="points">
              <mxPoint x="408" y="683" />
            </Array>
          </mxGeometry>
        </mxCell>
        <mxCell id="bu1bIHDC_9q-jcQCzxvl-36" value="" style="curved=1;startArrow=none;endArrow=block;exitX=0.5;exitY=1;entryX=0.5;entryY=0;rounded=0;" edge="1" parent="1" source="bu1bIHDC_9q-jcQCzxvl-6" target="bu1bIHDC_9q-jcQCzxvl-9">
          <mxGeometry relative="1" as="geometry">
            <Array as="points" />
          </mxGeometry>
        </mxCell>
        <mxCell id="bu1bIHDC_9q-jcQCzxvl-37" value="" style="curved=1;startArrow=none;endArrow=block;exitX=0.5;exitY=1;entryX=0.5;entryY=0;rounded=0;" edge="1" parent="1" source="bu1bIHDC_9q-jcQCzxvl-7" target="bu1bIHDC_9q-jcQCzxvl-10">
          <mxGeometry relative="1" as="geometry">
            <Array as="points" />
          </mxGeometry>
        </mxCell>
        <mxCell id="bu1bIHDC_9q-jcQCzxvl-38" value="" style="curved=1;startArrow=none;endArrow=block;exitX=0.5;exitY=1;entryX=0.5;entryY=0;rounded=0;" edge="1" parent="1" source="bu1bIHDC_9q-jcQCzxvl-8" target="bu1bIHDC_9q-jcQCzxvl-11">
          <mxGeometry relative="1" as="geometry">
            <Array as="points" />
          </mxGeometry>
        </mxCell>
        <mxCell id="bu1bIHDC_9q-jcQCzxvl-39" value="" style="curved=1;startArrow=none;endArrow=block;exitX=1;exitY=0.97;entryX=0.68;entryY=0;rounded=0;" edge="1" parent="1" source="bu1bIHDC_9q-jcQCzxvl-9" target="bu1bIHDC_9q-jcQCzxvl-12">
          <mxGeometry relative="1" as="geometry">
            <Array as="points">
              <mxPoint x="1040" y="939" />
            </Array>
          </mxGeometry>
        </mxCell>
        <mxCell id="bu1bIHDC_9q-jcQCzxvl-40" value="" style="curved=1;startArrow=none;endArrow=block;exitX=0.47;exitY=1;entryX=0.63;entryY=0;rounded=0;" edge="1" parent="1" source="bu1bIHDC_9q-jcQCzxvl-10" target="bu1bIHDC_9q-jcQCzxvl-12">
          <mxGeometry relative="1" as="geometry">
            <Array as="points">
              <mxPoint x="1017" y="939" />
            </Array>
          </mxGeometry>
        </mxCell>
        <mxCell id="bu1bIHDC_9q-jcQCzxvl-41" value="" style="curved=1;startArrow=none;endArrow=block;exitX=1;exitY=0.77;entryX=0.15;entryY=0;rounded=0;" edge="1" parent="1" source="bu1bIHDC_9q-jcQCzxvl-11" target="bu1bIHDC_9q-jcQCzxvl-12">
          <mxGeometry relative="1" as="geometry">
            <Array as="points">
              <mxPoint x="805" y="939" />
            </Array>
          </mxGeometry>
        </mxCell>
        <mxCell id="bu1bIHDC_9q-jcQCzxvl-42" value="" style="curved=1;startArrow=none;endArrow=block;exitX=0;exitY=0.7;entryX=0.5;entryY=0;rounded=0;" edge="1" parent="1" source="bu1bIHDC_9q-jcQCzxvl-12" target="bu1bIHDC_9q-jcQCzxvl-13">
          <mxGeometry relative="1" as="geometry">
            <Array as="points">
              <mxPoint x="398" y="1043" />
            </Array>
          </mxGeometry>
        </mxCell>
        <mxCell id="bu1bIHDC_9q-jcQCzxvl-43" value="" style="curved=1;startArrow=none;endArrow=block;exitX=0.5;exitY=1;entryX=0.5;entryY=0;rounded=0;" edge="1" parent="1" source="bu1bIHDC_9q-jcQCzxvl-12" target="bu1bIHDC_9q-jcQCzxvl-14">
          <mxGeometry relative="1" as="geometry">
            <Array as="points" />
          </mxGeometry>
        </mxCell>
        <mxCell id="bu1bIHDC_9q-jcQCzxvl-44" value="" style="curved=1;startArrow=none;endArrow=block;exitX=0.5;exitY=1;entryX=0.5;entryY=0;rounded=0;" edge="1" parent="1" source="bu1bIHDC_9q-jcQCzxvl-14" target="bu1bIHDC_9q-jcQCzxvl-15">
          <mxGeometry relative="1" as="geometry">
            <Array as="points" />
          </mxGeometry>
        </mxCell>
        <mxCell id="bu1bIHDC_9q-jcQCzxvl-45" value="" style="curved=1;startArrow=none;endArrow=block;exitX=0.5;exitY=1;entryX=0.5;entryY=0;rounded=0;" edge="1" parent="1" source="bu1bIHDC_9q-jcQCzxvl-15" target="bu1bIHDC_9q-jcQCzxvl-16">
          <mxGeometry relative="1" as="geometry">
            <Array as="points" />
          </mxGeometry>
        </mxCell>
        <mxCell id="bu1bIHDC_9q-jcQCzxvl-46" value="" style="curved=1;startArrow=none;endArrow=block;exitX=0.5;exitY=1;entryX=0.5;entryY=0;rounded=0;" edge="1" parent="1" source="bu1bIHDC_9q-jcQCzxvl-16" target="bu1bIHDC_9q-jcQCzxvl-17">
          <mxGeometry relative="1" as="geometry">
            <Array as="points" />
          </mxGeometry>
        </mxCell>
        <mxCell id="bu1bIHDC_9q-jcQCzxvl-47" value="" style="curved=1;startArrow=none;endArrow=block;exitX=0.5;exitY=1;entryX=0.5;entryY=0;rounded=0;" edge="1" parent="1" source="bu1bIHDC_9q-jcQCzxvl-17" target="bu1bIHDC_9q-jcQCzxvl-18">
          <mxGeometry relative="1" as="geometry">
            <Array as="points" />
          </mxGeometry>
        </mxCell>
        <mxCell id="bu1bIHDC_9q-jcQCzxvl-48" value="" style="curved=1;startArrow=none;endArrow=block;exitX=0.5;exitY=1;entryX=0.5;entryY=0;rounded=0;" edge="1" parent="1" source="bu1bIHDC_9q-jcQCzxvl-18" target="bu1bIHDC_9q-jcQCzxvl-19">
          <mxGeometry relative="1" as="geometry">
            <Array as="points" />
          </mxGeometry>
        </mxCell>
        <mxCell id="bu1bIHDC_9q-jcQCzxvl-49" value="" style="curved=1;startArrow=none;endArrow=block;exitX=0.5;exitY=1;entryX=0.5;entryY=0;rounded=0;" edge="1" parent="1" source="bu1bIHDC_9q-jcQCzxvl-19" target="bu1bIHDC_9q-jcQCzxvl-20">
          <mxGeometry relative="1" as="geometry">
            <Array as="points" />
          </mxGeometry>
        </mxCell>
        <mxCell id="bu1bIHDC_9q-jcQCzxvl-50" value="" style="curved=1;startArrow=none;endArrow=block;exitX=0.5;exitY=1;entryX=0.5;entryY=0;rounded=0;" edge="1" parent="1" source="bu1bIHDC_9q-jcQCzxvl-20" target="bu1bIHDC_9q-jcQCzxvl-21">
          <mxGeometry relative="1" as="geometry">
            <Array as="points" />
          </mxGeometry>
        </mxCell>
        <mxCell id="bu1bIHDC_9q-jcQCzxvl-51" value="" style="curved=1;startArrow=none;endArrow=block;exitX=0.31;exitY=1;entryX=0.5;entryY=0;rounded=0;" edge="1" parent="1" source="bu1bIHDC_9q-jcQCzxvl-21" target="bu1bIHDC_9q-jcQCzxvl-22">
          <mxGeometry relative="1" as="geometry">
            <Array as="points">
              <mxPoint x="878" y="2019" />
            </Array>
          </mxGeometry>
        </mxCell>
        <mxCell id="bu1bIHDC_9q-jcQCzxvl-52" value="" style="curved=1;startArrow=none;endArrow=block;exitX=0.69;exitY=1;entryX=1;entryY=0.07;rounded=0;" edge="1" parent="1" source="bu1bIHDC_9q-jcQCzxvl-21" target="bu1bIHDC_9q-jcQCzxvl-23">
          <mxGeometry relative="1" as="geometry">
            <Array as="points">
              <mxPoint x="1043" y="2019" />
              <mxPoint x="1043" y="2147" />
            </Array>
          </mxGeometry>
        </mxCell>
        <mxCell id="bu1bIHDC_9q-jcQCzxvl-53" value="" style="curved=1;startArrow=none;endArrow=block;exitX=0.5;exitY=1;entryX=0.69;entryY=0;rounded=0;" edge="1" parent="1" source="bu1bIHDC_9q-jcQCzxvl-22" target="bu1bIHDC_9q-jcQCzxvl-23">
          <mxGeometry relative="1" as="geometry">
            <Array as="points">
              <mxPoint x="878" y="2147" />
            </Array>
          </mxGeometry>
        </mxCell>
        <mxCell id="bu1bIHDC_9q-jcQCzxvl-54" value="" style="curved=1;startArrow=none;endArrow=block;exitX=0.5;exitY=1;entryX=1;entryY=0.25;rounded=0;" edge="1" parent="1" source="bu1bIHDC_9q-jcQCzxvl-23" target="bu1bIHDC_9q-jcQCzxvl-24">
          <mxGeometry relative="1" as="geometry">
            <Array as="points">
              <mxPoint x="798" y="2275" />
            </Array>
          </mxGeometry>
        </mxCell>
        <mxCell id="bu1bIHDC_9q-jcQCzxvl-55" value="" style="curved=1;dashed=1;dashPattern=2 3;startArrow=none;endArrow=block;exitX=0.48;exitY=1;entryX=0.83;entryY=0;rounded=0;" edge="1" parent="1" source="bu1bIHDC_9q-jcQCzxvl-9" target="bu1bIHDC_9q-jcQCzxvl-25">
          <mxGeometry relative="1" as="geometry">
            <Array as="points">
              <mxPoint x="713" y="939" />
            </Array>
          </mxGeometry>
        </mxCell>
        <mxCell id="bu1bIHDC_9q-jcQCzxvl-56" value="" style="curved=1;dashed=1;dashPattern=2 3;startArrow=none;endArrow=block;exitX=0.5;exitY=1;entryX=0.19;entryY=0;rounded=0;" edge="1" parent="1" source="bu1bIHDC_9q-jcQCzxvl-11" target="bu1bIHDC_9q-jcQCzxvl-25">
          <mxGeometry relative="1" as="geometry">
            <Array as="points">
              <mxPoint x="408" y="939" />
            </Array>
          </mxGeometry>
        </mxCell>
        <mxCell id="bu1bIHDC_9q-jcQCzxvl-57" value="" style="curved=1;dashed=1;dashPattern=2 3;startArrow=none;endArrow=block;exitX=0.66;exitY=1;entryX=0.11;entryY=0;rounded=0;" edge="1" parent="1" source="bu1bIHDC_9q-jcQCzxvl-25" target="bu1bIHDC_9q-jcQCzxvl-23">
          <mxGeometry relative="1" as="geometry">
            <Array as="points">
              <mxPoint x="633" y="1043" />
              <mxPoint x="633" y="2147" />
            </Array>
          </mxGeometry>
        </mxCell>
        <mxCell id="bu1bIHDC_9q-jcQCzxvl-58" value="" style="curved=1;startArrow=none;endArrow=block;exitX=0.5;exitY=1;entryX=0.5;entryY=0;rounded=0;" edge="1" parent="1" source="bu1bIHDC_9q-jcQCzxvl-24" target="bu1bIHDC_9q-jcQCzxvl-26">
          <mxGeometry relative="1" as="geometry">
            <Array as="points" />
          </mxGeometry>
        </mxCell>
        <mxCell id="bu1bIHDC_9q-jcQCzxvl-59" value="" style="curved=1;startArrow=none;endArrow=block;exitX=0;exitY=0.62;entryX=0.5;entryY=0;rounded=0;" edge="1" parent="1" source="bu1bIHDC_9q-jcQCzxvl-5" target="bu1bIHDC_9q-jcQCzxvl-27">
          <mxGeometry relative="1" as="geometry">
            <Array as="points">
              <mxPoint x="150" y="683" />
            </Array>
          </mxGeometry>
        </mxCell>
        <mxCell id="bu1bIHDC_9q-jcQCzxvl-60" value="" style="curved=1;startArrow=none;endArrow=block;exitX=0.5;exitY=1;entryX=0.17;entryY=0;rounded=0;" edge="1" parent="1" source="bu1bIHDC_9q-jcQCzxvl-27" target="bu1bIHDC_9q-jcQCzxvl-24">
          <mxGeometry relative="1" as="geometry">
            <Array as="points">
              <mxPoint x="150" y="2275" />
            </Array>
          </mxGeometry>
        </mxCell>
        <mxCell id="bu1bIHDC_9q-jcQCzxvl-61" value="" style="curved=1;startArrow=none;endArrow=block;exitX=0.5;exitY=1;entryX=0.7;entryY=0;rounded=0;" edge="1" parent="1" source="bu1bIHDC_9q-jcQCzxvl-13" target="bu1bIHDC_9q-jcQCzxvl-28">
          <mxGeometry relative="1" as="geometry">
            <Array as="points">
              <mxPoint x="398" y="1171" />
            </Array>
          </mxGeometry>
        </mxCell>
        <mxCell id="bu1bIHDC_9q-jcQCzxvl-62" value="" style="curved=1;dashed=1;dashPattern=2 3;startArrow=none;endArrow=block;exitX=0.33;exitY=0;entryX=0.01;entryY=1;rounded=0;" edge="1" parent="1" source="bu1bIHDC_9q-jcQCzxvl-28" target="bu1bIHDC_9q-jcQCzxvl-1">
          <mxGeometry relative="1" as="geometry">
            <Array as="points">
              <mxPoint x="243" y="1171" />
              <mxPoint x="243" y="84" />
            </Array>
          </mxGeometry>
        </mxCell>
      </root>
    </mxGraphModel>
  </diagram>
</mxfile>
